<svg viewBox="0 0 125 35" version="1.1" xmlns="http://www.w3.org/2000/svg" fill-rule="nonzero">
    <path fill="#ffffff"
        d="M29.617,8.25c-3.15,-0 -5.117,1.833 -5.967,3.15l0,-2.567l-4.35,0l0,25.217l4.467,-0l-0,-9.083c0.833,1.433 2.75,2.649 5.85,2.649c4.65,0 7.75,-3.833 7.75,-9.666c0.016,-5.85 -3.1,-9.7 -7.75,-9.7Zm-1.467,15.467c-2.7,-0 -4.617,-1.917 -4.617,-5.8c0,-3.85 1.9,-5.767 4.617,-5.767c2.6,-0 4.567,1.517 4.567,5.767c0.016,4.283 -1.967,5.8 -4.567,5.8Zm72.633,-15.467c-3.15,-0 -5.116,1.833 -5.966,3.15l-0,-2.567l-4.35,0l-0,25.217l4.466,-0l0,-9.083c0.834,1.433 2.75,2.649 5.85,2.649c4.65,0 7.75,-3.833 7.75,-9.666c0.017,-5.85 -3.1,-9.7 -7.75,-9.7Zm-1.466,15.467c-2.7,-0 -4.617,-1.917 -4.617,-5.8c0,-3.85 1.9,-5.767 4.617,-5.767c2.6,-0 4.566,1.517 4.566,5.767c0.017,4.283 -1.966,5.8 -4.566,5.8Zm-28.434,-6.017l6.884,9.367l-5.417,-0l-1.833,-2.667c-0.984,-1.5 -1.717,-2.567 -2.417,-3.55c-0.767,1.1 -1.467,2.083 -2.417,3.517l-1.833,2.7l-4.833,-0l6.733,-9.434l-6.383,-8.8l5.35,0l1.566,2.384c0.984,1.466 1.567,2.333 2.234,3.3c0.7,-0.95 1.25,-1.8 2.266,-3.3l1.65,-2.384l4.9,0l-6.45,8.867Zm10.067,-8.867l4.433,0l0,18.217l-4.433,-0l-0,-18.217Zm4.983,-5.766c0,1.533 -1.25,2.783 -2.783,2.783c-1.533,-0 -2.783,-1.25 -2.783,-2.783c-0,-1.534 1.25,-2.784 2.783,-2.784c1.533,0 2.783,1.25 2.783,2.784Zm39.067,-1.017l-0,4l-4.5,-0l-0,24l4.5,-0l-0,4l-8.5,-0l-0,-32l8.5,-0Zm-75.767,22.05c-2.333,-0 -4.316,-1.35 -4.5,-5.05l12.884,-0c0.583,-6.033 -2.667,-10.75 -8.484,-10.75c-5.05,-0 -8.816,3.833 -8.816,9.667c-0,6.066 3.516,9.666 8.883,9.666c4.8,0 7.35,-2.483 8.517,-5.3l-4.017,-1.5c-0.667,1.5 -1.867,3.267 -4.467,3.267Zm-0.116,-12.483c2.3,-0 3.916,1.466 4.066,4.133l-8.3,-0c0.317,-2.633 2.034,-4.133 4.234,-4.133Zm-49.117,22.433l-0,-4l4.5,-0l-0,-24l-4.5,-0l-0,-4l8.5,-0l-0,32l-8.5,-0Z" />
</svg>
